<?xml version="1.0" encoding="utf-8"?>
<!-- Uploaded to: SVG Repo, www.svgrepo.com, Generator: SVG Repo Mixer Tools -->
<svg width="800px" height="800px" viewBox="0 0 1024 1024" class="icon"  version="1.1" xmlns="http://www.w3.org/2000/svg"><path d="M601.297135 263.938183c29.525781-10.220423 50.8185-38.610716 50.8185-71.827603 0-42.017182-34.06876-75.802326-75.802326-75.802327-42.017182 0-81.196154 36.339738-75.802326 84.319005 0 0-0.283616 40.882717 100.786152 63.310925" fill="#EE3544" /><path d="M677.666693 676.165677m-181.697666 0a181.697666 181.697666 0 1 0 363.395332 0 181.697666 181.697666 0 1 0-363.395332 0Z" fill="#0083BF" /><path d="M346.635353 651.181852m-197.312941 0a197.312941 197.312941 0 1 0 394.625882 0 197.312941 197.312941 0 1 0-394.625882 0Z" fill="#FFCB05" /><path d="M880.089846 698.877502H145.348713c-8.233062 0-13.91153 8.233062-11.072296 15.898891l19.588974 52.805862c1.703745 4.541955 6.2457 7.665829 11.072296 7.665829h9.936807l40.314461 111.572784c10.50404 28.958549 37.758843 48.263906 68.421137 48.263907h457.935783c30.66127 0 58.19969-19.305358 68.421137-48.263907l40.31446-111.573808h9.936808c4.826595 0 9.368551-3.12285 11.072295-7.665829l19.588974-52.805862c3.121826-7.664806-2.556642-15.897867-10.789703-15.897867z" fill="#F9AC82" /><path d="M490.858816 896.474059h-155.579375c-37.758843 0-71.827603-23.848337-84.602621-59.336202l-30.94591-86.02275c-3.12285-8.801318 1.419105-18.737101 10.220423-21.860975s18.737101 1.419105 21.860976 10.220423l30.94591 86.022749c7.949446 22.144592 28.958549 36.90697 52.522246 36.906971h155.579375c9.368551 0 17.03438 7.665829 17.03438 17.03438s-7.383237 17.035404-17.035404 17.035404z" fill="#F8BC95" /><path d="M315.690467 458.695506s172.612731 187.376134 357.149631 30.94591c0 0 45.708289-60.187051 35.204249-134.570272-7.097573-50.534884-46.843777-72.679476-120.090486-96.526789-36.056122-12.491401-84.887261-37.758843-99.934279-64.161774-16.750764-30.094037-24.699186-87.441855-24.699186-87.441854-209.804342 169.774521-27.822036 270.843266-27.822036 270.843265-67.853904 13.62689-113.562193 43.152671-119.807893 80.911514z" fill="#FFFFFF" /><path d="M440.607548 329.520086c-3.974723 0-7.949446-1.419105-11.072296-4.258339-22.144592-19.305358-29.525781-47.412034-21.009103-81.479771 5.678468-23.563697 17.317996-41.733566 17.601613-42.585438 5.110212-7.949446 15.614251-10.50404 23.563697-5.393828 7.949446 5.110212 10.220423 15.614251 5.393827 23.563697-0.283616 0.568256-33.216888 54.509607-3.406466 80.344281 7.097573 6.2457 7.949446 17.03438 1.703745 24.131954-3.406466 3.690083-8.232038 5.677444-12.775017 5.677444zM665.742525 394.533732c-8.516678 0-15.898891-6.529317-17.03438-15.330635-0.283616-3.12285-4.258339-30.377654-31.229527-34.06876-9.368551-1.135489-15.898891-9.936807-14.478762-19.305358 1.135489-9.368551 9.936807-15.898891 19.305358-14.478762 43.437311 5.962084 58.48433 44.5728 60.471691 64.446414 0.851873 9.368551-5.962084 17.601613-15.330635 18.738125l-1.703745-0.001024zM394.332027 470.903291c-6.2457 0-11.924168-3.406466-15.047019-9.084935-4.258339-8.233062-1.135489-18.738125 7.097573-22.996464 78.64156-41.733566 186.524261-32.648631 191.066217-32.365015 9.368551 0.851873 16.182508 9.084934 15.614251 18.453485-0.851873 9.368551-9.084934 16.182508-18.453485 15.614251-1.419105 0-102.772489-8.233062-172.329115 28.673909-2.554594 1.136513-5.110212 1.704769-7.948422 1.704769z" fill="#F1F2F2" /><path d="M210.078743 661.685891h-1.419105c-9.368551-0.568256-16.466124-8.801318-15.614251-18.169869 0.283616-3.691107 7.665829-91.416577 82.899899-130.311933 8.233062-4.258339 18.738125-1.135489 22.996465 7.381189 4.258339 8.233062 1.135489 18.738125-7.38119 22.996465-58.48433 30.094037-64.446414 101.921641-64.73003 102.488873-0.56928 8.802342-7.951493 15.615275-16.751788 15.615275z" fill="#FFDE2F" /><path d="M794.067096 635.28296c-6.2457 0-12.207785-3.406466-15.047018-9.084934-30.094037-58.48433-101.921641-64.446414-102.488873-64.73003-9.368551-0.568256-16.466124-8.801318-15.614252-18.169869 0.568256-9.368551 8.801318-16.466124 18.169869-15.614252 3.691107 0.283616 91.416577 7.665829 130.311933 82.8999 4.258339 8.233062 1.135489 18.737101-7.381189 22.996464-2.556642 1.135489-5.394852 1.702721-7.95047 1.702721z" fill="#0095DA" /><path d="M601.297135 215.957893c-0.851873 0-1.419105 0-2.270978-0.283617-9.368551-1.135489-15.898891-9.653191-14.763402-19.021741 1.419105-10.50404-9.652167-14.478762-13.059658-15.330635-9.084934-2.554594-14.478762-11.639528-11.924168-20.724463 2.270978-9.084934 11.924168-14.478762 21.009103-12.207785 1.703745 0.568256 11.072296 3.12285 19.873614 10.220424 13.62689 10.50404 20.15723 25.834675 17.886253 42.585438-0.852896 8.516678-8.234086 14.762379-16.750764 14.762379z" fill="#F15C5C" /><path d="M903.653543 694.335546c-5.393828-7.665829-14.195146-12.491401-23.563697-12.491401h-3.691107v-5.678468c0-101.353384-76.085942-185.105156-174.316476-197.0283 13.62689-26.119315 30.94591-70.975731 23.563697-122.646104-6.813957-49.966628-42.585438-75.802326-87.726495-94.539428 19.588974-17.317996 31.229526-42.585438 31.229526-69.556625 0-25.267442-9.936807-47.979266-26.402931-64.730031 5.678468-9.653191 17.317996-23.848337 38.894332-29.242164 9.084934-2.270978 14.478762-11.639528 12.207785-20.724463s-11.639528-14.478762-20.724463-12.207785c-30.94591 7.949446-48.831139 27.53842-58.199689 42.585438-11.924168-5.393828-24.983826-8.516678-38.894332-8.516678-26.402931 0-51.953989 11.639528-69.840242 31.513143-6.529317 7.381189-11.639528 15.330635-15.614251 23.848337-5.110212-18.737101-8.516678-37.758843-9.653191-46.560161-0.851873-5.962084-4.826595-11.355912-10.50404-13.62689-5.678468-2.270978-12.207785-1.135489-17.03438 2.555618-76.085942 61.60718-111.857424 122.362487-106.747212 181.130433 3.974723 44.289184 30.094037 76.369559 51.953989 95.959556-21.292719 7.381189-40.881693 16.74974-56.780585 27.822036-16.74974 11.639528-28.958549 24.699186-35.771481 38.610716-98.798791 19.01867-173.749244 106.176908-173.749244 210.369527 0 11.072296 0.851873 22.144592 2.555617 32.648631-5.110212 1.987361-9.653191 5.678468-13.059657 10.220423-5.393828 7.665829-6.529317 17.601613-3.406466 26.402931l19.588974 52.805862c3.974723 10.50404 13.91153 17.886253 24.983825 18.737101l36.339738 100.501512c12.776041 35.487865 46.843777 59.336202 84.602621 59.336203h457.935783c37.758843 0 71.827603-23.848337 84.602621-59.336203l36.339738-100.501512c11.072296-0.851873 21.009103-8.233062 24.983825-18.737101l19.588974-52.805862c2.839234-8.516678 1.702721-18.453485-3.691106-26.118291z m-61.32254-18.169869v5.678468H558.995313c1.419105-9.936807 2.270978-20.15723 2.270977-30.661269 0-28.390292-5.678468-55.36148-15.614251-80.344282 41.44995-5.110212 86.589982-22.144592 132.582911-59.336202 90.564705 0.282592 164.096053 74.097557 164.096053 164.663285zM517.261747 198.639896c-1.703745-16.750764 3.406466-32.648631 14.478762-45.141056 11.355912-12.776041 28.106676-20.15723 44.5728-20.15723 32.365015 0 58.767946 26.402931 58.767946 58.767946 0 24.415569-15.047019 46.276545-37.475227 54.793223-1.135489-0.283616-2.270978-0.851873-3.406466-1.135489-27.53842-9.653191-58.767946-25.551058-77.221432-41.44995 0.283616-1.702721 0.567232-3.690083 0.283617-5.677444zM361.115139 430.305214c20.15723-13.91153 47.412034-24.699186 77.505048-32.081399 1.135489-0.283616 2.555618-0.568256 3.691106-0.851873 45.708289-10.220423 97.946918-12.207785 143.08695-3.12285 9.084934 1.703745 18.169869-4.258339 20.157231-13.343273 1.703745-9.084934-4.258339-18.169869-13.343274-20.157231-48.547523-9.652167-103.340746-8.233062-152.455501 2.270978-14.763402-9.936807-54.793223-40.881693-58.767946-88.010111-3.406466-41.166333 20.724463-85.739133 72.11122-132.299295 4.258339 19.873614 11.355912 45.708289 21.292719 63.594542 17.601613 31.229526 69.556626 58.19969 109.019214 71.827603h0.283616c76.937815 24.983826 103.340746 45.141056 108.450958 82.616283 8.516678 60.471691-24.699186 111.573808-30.94591 120.658742-70.692114 59.051562-147.061673 72.39586-227.690595 39.462589-47.69565-19.588974-83.467132-50.251268-97.662278-63.594542 3.974723-9.083911 12.491401-18.168845 25.267442-26.970163z m-55.645096 45.424672c8.801318 9.084934 51.102117 50.8185 113.844786 76.654199 25.267442 10.50404 55.645096 18.737101 89.429216 20.15723 11.640552 23.848337 18.169869 50.534884 18.169869 78.925177 0 10.50404-0.851873 20.724463-2.554594 30.66127H168.91241c-1.703745-9.936807-2.554594-20.15723-2.554594-30.66127 0-85.455517 59.618795-156.999504 139.112227-175.736606zM794.067096 881.143424c-7.949446 22.144592-28.958549 36.90697-52.522245 36.90697H283.893708c-23.563697 0-44.5728-14.763402-52.522246-36.90697l-32.081398-88.861984h626.857407l-32.080375 88.861984z m62.742669-122.92972H168.628794l-15.614252-42.301822H872.42504l-15.615275 42.301822z" fill="#1A3F6F" /></svg>